<svg width="430" height="932" viewBox="0 0 430 932" fill="none" xmlns="http://www.w3.org/2000/svg">
<rect width="430" height="932" fill="url(#paint0_linear_12_2)"/>
<path d="M77.8645 452.76C78.0779 452.36 78.4379 452.08 78.9445 451.92C79.4512 451.76 80.0912 451.68 80.8645 451.68C81.6379 451.68 82.2512 451.747 82.7045 451.88C83.1579 452.013 83.5045 452.173 83.7445 452.36C83.9845 452.547 84.1712 452.813 84.3045 453.16C84.4379 453.613 84.5045 454.307 84.5045 455.24V477.44C84.5045 478.053 84.4779 478.52 84.4245 478.84C84.3979 479.133 84.2779 479.48 84.0645 479.88C83.6912 480.6 82.6512 480.96 80.9445 480.96C79.0779 480.96 77.9845 480.467 77.6645 479.48C77.5045 479.027 77.4245 478.333 77.4245 477.4V469.28H66.8245V477.44C66.8245 478.053 66.7979 478.52 66.7445 478.84C66.7179 479.133 66.5979 479.48 66.3845 479.88C66.0112 480.6 64.9712 480.96 63.2645 480.96C61.3979 480.96 60.3045 480.467 59.9845 479.48C59.8245 479.027 59.7445 478.333 59.7445 477.4V455.2C59.7445 454.587 59.7579 454.133 59.7845 453.84C59.8379 453.52 59.9712 453.16 60.1845 452.76C60.5579 452.04 61.5979 451.68 63.3045 451.68C65.1712 451.68 66.2779 452.173 66.6245 453.16C66.7579 453.613 66.8245 454.307 66.8245 455.24V463.4H77.4245V455.2C77.4245 454.587 77.4379 454.133 77.4645 453.84C77.5179 453.52 77.6512 453.16 77.8645 452.76ZM108.033 467.96C108.033 469.587 107.62 470.8 106.793 471.6C105.993 472.373 105.1 472.76 104.113 472.76H94.6333C94.6333 473.507 95.0733 474.133 95.9533 474.64C96.8333 475.147 97.7133 475.4 98.5933 475.4C100.14 475.4 101.353 475.24 102.233 474.92L102.673 474.76C103.313 474.467 103.847 474.32 104.273 474.32C105.127 474.32 105.86 474.92 106.473 476.12C106.82 476.84 106.993 477.453 106.993 477.96C106.993 480.333 104.153 481.52 98.4733 481.52C96.4999 481.52 94.7399 481.187 93.1933 480.52C91.6733 479.827 90.4866 478.92 89.6333 477.8C87.9533 475.64 87.1133 473.227 87.1133 470.56C87.1133 467.2 88.1933 464.52 90.3533 462.52C92.5399 460.493 95.2599 459.48 98.5133 459.48C102.22 459.48 104.94 460.787 106.673 463.4C107.58 464.787 108.033 466.307 108.033 467.96ZM99.5933 469.12C100.607 469.12 101.113 468.693 101.113 467.84C101.113 467.227 100.873 466.733 100.393 466.36C99.9399 465.987 99.2733 465.8 98.3933 465.8C97.5399 465.8 96.6866 466.16 95.8333 466.88C94.9799 467.573 94.5533 468.32 94.5533 469.12H99.5933ZM118.003 473.92C118.883 473.92 119.536 474.147 119.963 474.6C120.39 475.053 120.603 475.987 120.603 477.4C120.603 478.813 120.376 479.76 119.923 480.24C119.47 480.693 118.816 480.92 117.963 480.92C115.27 480.92 113.376 480.28 112.283 479C111.19 477.693 110.643 475.533 110.643 472.52V453.44C110.643 452.827 110.656 452.373 110.683 452.08C110.736 451.76 110.856 451.4 111.043 451C111.416 450.307 112.456 449.96 114.163 449.96C115.79 449.96 116.803 450.333 117.203 451.08C117.416 451.453 117.536 451.8 117.563 452.12C117.616 452.413 117.643 452.867 117.643 453.48V472.68C117.643 473.507 117.763 473.92 118.003 473.92ZM128.443 472.68C128.443 473.187 128.55 473.52 128.763 473.68C128.976 473.84 129.523 473.92 130.403 473.92C131.283 473.92 132.016 474.147 132.603 474.6C133.19 475.053 133.483 475.987 133.483 477.4C133.483 478.813 133.163 479.76 132.523 480.24C131.91 480.693 131.043 480.92 129.923 480.92C124.27 480.92 121.443 478.12 121.443 472.52L121.403 453.44C121.403 452.827 121.416 452.373 121.443 452.08C121.496 451.76 121.63 451.4 121.843 451C122.243 450.307 123.283 449.96 124.963 449.96C126.59 449.96 127.603 450.333 128.003 451.08C128.296 451.667 128.443 452.467 128.443 453.48V472.68ZM135.082 470.48C135.082 467.28 136.202 464.64 138.442 462.56C140.682 460.48 143.242 459.44 146.122 459.44C149.002 459.44 151.549 460.48 153.762 462.56C155.975 464.613 157.082 467.24 157.082 470.44C157.082 472.653 156.509 474.627 155.362 476.36C154.215 478.067 152.815 479.333 151.162 480.16C149.535 480.96 147.842 481.36 146.082 481.36C144.322 481.36 142.615 480.933 140.962 480.08C139.309 479.2 137.909 477.92 136.762 476.24C135.642 474.533 135.082 472.613 135.082 470.48ZM143.442 473.36C144.295 474 145.162 474.32 146.042 474.32C146.922 474.32 147.802 473.987 148.682 473.32C149.562 472.653 150.002 471.667 150.002 470.36C150.002 469.053 149.589 468.08 148.762 467.44C147.935 466.8 147.042 466.48 146.082 466.48C145.122 466.48 144.229 466.813 143.402 467.48C142.575 468.147 142.162 469.133 142.162 470.44C142.162 471.72 142.589 472.693 143.442 473.36ZM204.864 451.84C206.65 452.48 207.544 453.333 207.544 454.4C207.544 454.747 207.384 455.4 207.064 456.36L199.384 478.56C199.33 478.747 199.237 478.973 199.104 479.24C198.97 479.507 198.61 479.867 198.024 480.32C197.464 480.747 196.784 480.96 195.984 480.96C195.21 480.96 194.53 480.747 193.944 480.32C193.384 479.867 193.01 479.427 192.824 479L188.144 465.2C185.184 473.947 183.677 478.4 183.624 478.56C183.57 478.72 183.45 478.947 183.264 479.24C183.077 479.533 182.864 479.8 182.624 480.04C182.01 480.653 181.277 480.96 180.424 480.96C179.57 480.96 178.864 480.76 178.304 480.36C177.77 479.96 177.41 479.56 177.224 479.16L176.944 478.56L169.224 456.36C168.93 455.48 168.784 454.827 168.784 454.4C168.784 453.333 169.677 452.493 171.464 451.88C172.237 451.613 172.93 451.48 173.544 451.48C174.184 451.48 174.664 451.693 174.984 452.12C175.33 452.547 175.637 453.2 175.904 454.08L180.304 467.44L184.664 454.28C185.037 453.16 185.717 452.387 186.704 451.96C187.13 451.773 187.677 451.68 188.344 451.68C189.037 451.68 189.677 451.907 190.264 452.36C190.85 452.787 191.224 453.213 191.384 453.64L195.984 467.52L200.384 454.08C200.597 453.467 200.77 453.013 200.904 452.72C201.037 452.427 201.277 452.147 201.624 451.88C201.997 451.587 202.45 451.44 202.984 451.44C203.517 451.44 204.144 451.573 204.864 451.84ZM206.332 470.48C206.332 467.28 207.452 464.64 209.692 462.56C211.932 460.48 214.492 459.44 217.372 459.44C220.252 459.44 222.799 460.48 225.012 462.56C227.225 464.613 228.332 467.24 228.332 470.44C228.332 472.653 227.759 474.627 226.612 476.36C225.465 478.067 224.065 479.333 222.412 480.16C220.785 480.96 219.092 481.36 217.332 481.36C215.572 481.36 213.865 480.933 212.212 480.08C210.559 479.2 209.159 477.92 208.012 476.24C206.892 474.533 206.332 472.613 206.332 470.48ZM214.692 473.36C215.545 474 216.412 474.32 217.292 474.32C218.172 474.32 219.052 473.987 219.932 473.32C220.812 472.653 221.252 471.667 221.252 470.36C221.252 469.053 220.839 468.08 220.012 467.44C219.185 466.8 218.292 466.48 217.332 466.48C216.372 466.48 215.479 466.813 214.652 467.48C213.825 468.147 213.412 469.133 213.412 470.44C213.412 471.72 213.839 472.693 214.692 473.36ZM245.236 460.16C245.743 460.32 246.156 460.6 246.476 461C246.823 461.373 246.996 461.987 246.996 462.84C246.996 463.693 246.743 464.627 246.236 465.64C245.73 466.653 244.996 467.16 244.036 467.16C243.556 467.16 243.09 467.053 242.636 466.84C242.21 466.627 241.636 466.52 240.916 466.52C240.196 466.52 239.516 466.773 238.876 467.28C238.263 467.787 237.956 468.4 237.956 469.12V477.52C237.956 478.133 237.93 478.6 237.876 478.92C237.85 479.213 237.73 479.56 237.516 479.96C237.116 480.653 236.076 481 234.396 481C233.116 481 232.196 480.773 231.636 480.32C231.21 479.947 230.97 479.373 230.916 478.6C230.916 478.333 230.916 477.947 230.916 477.44V463.4C230.916 462.787 230.93 462.333 230.956 462.04C231.01 461.72 231.13 461.373 231.316 461C231.69 460.28 232.73 459.92 234.436 459.92C236.036 459.92 237.036 460.227 237.436 460.84C237.73 461.267 237.876 461.707 237.876 462.16C238.01 461.973 238.196 461.747 238.436 461.48C238.703 461.213 239.25 460.853 240.076 460.4C240.903 459.947 241.623 459.72 242.236 459.72C242.876 459.72 243.41 459.76 243.836 459.84C244.263 459.893 244.73 460 245.236 460.16ZM249.198 453.52C249.198 452.907 249.211 452.453 249.238 452.16C249.291 451.84 249.411 451.48 249.598 451.08C249.971 450.36 251.011 450 252.718 450C254.344 450 255.358 450.36 255.758 451.08C255.971 451.48 256.091 451.84 256.118 452.16C256.171 452.48 256.198 452.947 256.198 453.56V472.08C256.198 473.04 256.278 473.653 256.438 473.92C256.598 474.16 256.944 474.28 257.478 474.28C258.038 474.28 258.411 474.307 258.598 474.36C258.784 474.387 259.011 474.493 259.278 474.68C259.811 475.027 260.078 475.973 260.078 477.52C260.078 479.2 259.811 480.227 259.278 480.6C258.584 481.08 256.931 481.16 254.318 480.84C252.264 480.573 250.931 479.893 250.318 478.8C249.571 477.493 249.198 475.413 249.198 472.56V453.52ZM276.404 451.16C276.617 450.76 276.977 450.48 277.484 450.32C277.99 450.16 278.657 450.08 279.484 450.08C280.337 450.08 281.017 450.16 281.524 450.32C282.03 450.48 282.377 450.76 282.564 451.16C282.777 451.56 282.897 451.92 282.924 452.24C282.977 452.533 283.004 452.987 283.004 453.6V477.48C283.004 478.093 282.977 478.56 282.924 478.88C282.897 479.173 282.777 479.507 282.564 479.88C282.164 480.6 281.03 480.96 279.164 480.96C277.324 480.96 276.297 480.307 276.084 479C274.964 480.28 273.404 480.92 271.404 480.92C269.004 480.92 266.817 479.88 264.844 477.8C262.87 475.693 261.884 473.253 261.884 470.48C261.884 467.68 262.87 465.227 264.844 463.12C266.844 461.013 269.03 459.96 271.404 459.96C273.377 459.96 274.91 460.627 276.004 461.96V453.56C276.004 452.947 276.017 452.493 276.044 452.2C276.097 451.88 276.217 451.533 276.404 451.16ZM269.924 472.88C270.617 473.6 271.457 473.96 272.444 473.96C273.43 473.96 274.244 473.6 274.884 472.88C275.55 472.16 275.884 471.373 275.884 470.52C275.884 469.64 275.564 468.827 274.924 468.08C274.31 467.333 273.47 466.96 272.404 466.96C271.337 466.96 270.484 467.333 269.844 468.08C269.204 468.8 268.884 469.6 268.884 470.48C268.884 471.36 269.23 472.16 269.924 472.88ZM313.227 453.76L324.027 476.08C324.48 476.987 324.707 477.667 324.707 478.12C324.707 479.08 323.934 479.947 322.387 480.72C321.48 481.173 320.76 481.4 320.227 481.4C319.72 481.4 319.294 481.28 318.947 481.04C318.627 480.8 318.387 480.547 318.227 480.28C318.094 480.013 317.894 479.613 317.627 479.08L315.547 474.76H304.467L302.387 479.08C302.12 479.613 301.907 480 301.747 480.24C301.614 480.48 301.374 480.733 301.027 481C300.707 481.24 300.28 481.36 299.747 481.36C299.24 481.36 298.534 481.133 297.627 480.68C296.08 479.933 295.307 479.08 295.307 478.12C295.307 477.667 295.534 476.987 295.987 476.08L306.787 453.72C307.08 453.107 307.52 452.613 308.107 452.24C308.72 451.867 309.36 451.68 310.027 451.68C311.467 451.68 312.534 452.373 313.227 453.76ZM309.987 463.36L307.347 468.84H312.667L309.987 463.36ZM326.893 486.72V463.36C326.893 462.747 326.906 462.293 326.933 462C326.986 461.707 327.106 461.373 327.293 461C327.666 460.28 328.56 459.92 329.973 459.92C331.386 459.92 332.333 460.107 332.813 460.48C333.32 460.827 333.613 461.347 333.693 462.04C334.706 460.653 336.293 459.96 338.453 459.96C340.64 459.96 342.706 460.987 344.653 463.04C346.6 465.093 347.573 467.48 347.573 470.2C347.573 472.92 346.6 475.307 344.653 477.36C342.733 479.413 340.68 480.44 338.493 480.44C336.306 480.44 334.72 479.827 333.733 478.6V486.68C333.733 487.293 333.706 487.747 333.653 488.04C333.626 488.333 333.506 488.667 333.293 489.04C333.106 489.44 332.773 489.72 332.293 489.88C331.813 490.04 331.16 490.12 330.333 490.12C329.506 490.12 328.84 490.04 328.333 489.88C327.853 489.72 327.506 489.453 327.293 489.08C327.106 488.707 326.986 488.373 326.933 488.08C326.906 487.787 326.893 487.333 326.893 486.72ZM334.813 467.88C334.2 468.6 333.893 469.387 333.893 470.24C333.893 471.093 334.2 471.88 334.813 472.6C335.453 473.293 336.253 473.64 337.213 473.64C338.2 473.64 339.026 473.293 339.693 472.6C340.386 471.907 340.733 471.12 340.733 470.24C340.733 469.36 340.413 468.573 339.773 467.88C339.133 467.16 338.293 466.8 337.253 466.8C336.24 466.8 335.426 467.16 334.813 467.88ZM350.174 486.72V463.36C350.174 462.747 350.188 462.293 350.214 462C350.268 461.707 350.388 461.373 350.574 461C350.948 460.28 351.841 459.92 353.254 459.92C354.668 459.92 355.614 460.107 356.094 460.48C356.601 460.827 356.894 461.347 356.974 462.04C357.988 460.653 359.574 459.96 361.734 459.96C363.921 459.96 365.988 460.987 367.934 463.04C369.881 465.093 370.854 467.48 370.854 470.2C370.854 472.92 369.881 475.307 367.934 477.36C366.014 479.413 363.961 480.44 361.774 480.44C359.588 480.44 358.001 479.827 357.014 478.6V486.68C357.014 487.293 356.988 487.747 356.934 488.04C356.908 488.333 356.788 488.667 356.574 489.04C356.388 489.44 356.054 489.72 355.574 489.88C355.094 490.04 354.441 490.12 353.614 490.12C352.788 490.12 352.121 490.04 351.614 489.88C351.134 489.72 350.788 489.453 350.574 489.08C350.388 488.707 350.268 488.373 350.214 488.08C350.188 487.787 350.174 487.333 350.174 486.72ZM358.094 467.88C357.481 468.6 357.174 469.387 357.174 470.24C357.174 471.093 357.481 471.88 358.094 472.6C358.734 473.293 359.534 473.64 360.494 473.64C361.481 473.64 362.308 473.293 362.974 472.6C363.668 471.907 364.014 471.12 364.014 470.24C364.014 469.36 363.694 468.573 363.054 467.88C362.414 467.16 361.574 466.8 360.534 466.8C359.521 466.8 358.708 467.16 358.094 467.88Z" fill="white"/>
<path d="M118.674 861.105C119.264 861.805 119.559 862.59 119.559 863.46C119.539 864.46 119.194 865.3 118.524 865.98C117.864 866.65 117.059 866.985 116.109 866.985H112.164C111.464 866.985 111.054 866.795 110.934 866.415C110.874 866.245 110.844 865.985 110.844 865.635V857.31C110.844 857.07 110.849 856.895 110.859 856.785C110.879 856.675 110.929 856.545 111.009 856.395C111.149 856.125 111.539 855.99 112.179 855.99H115.959C116.879 855.99 117.649 856.31 118.269 856.95C118.919 857.6 119.244 858.38 119.244 859.29C119.244 859.95 119.054 860.555 118.674 861.105ZM116.904 863.31C116.904 863.07 116.874 862.88 116.814 862.74C116.764 862.6 116.674 862.5 116.544 862.44C116.344 862.36 116.064 862.32 115.704 862.32C115.344 862.32 115.074 862.25 114.894 862.11C114.714 861.97 114.624 861.685 114.624 861.255C114.624 860.815 114.714 860.525 114.894 860.385C115.084 860.245 115.394 860.175 115.824 860.175C116.224 860.175 116.464 860.07 116.544 859.86C116.574 859.75 116.589 859.57 116.589 859.32C116.589 859.07 116.504 858.895 116.334 858.795C116.174 858.695 115.929 858.645 115.599 858.645H113.499V864.33H115.959C116.589 864.33 116.904 863.99 116.904 863.31ZM127.891 859.185C128.481 859.445 128.776 859.76 128.776 860.13C128.776 860.31 128.736 860.48 128.656 860.64C128.576 860.8 128.536 860.885 128.536 860.895L124.606 869.685C124.526 869.875 124.456 870.02 124.396 870.12C124.346 870.22 124.261 870.315 124.141 870.405C124.021 870.495 123.871 870.54 123.691 870.54C123.511 870.54 123.246 870.465 122.896 870.315C122.306 870.055 122.011 869.745 122.011 869.385C122.011 869.145 122.491 868 123.451 865.95L120.466 860.925C120.266 860.595 120.166 860.35 120.166 860.19C120.166 859.87 120.436 859.55 120.976 859.23C121.316 859.03 121.581 858.93 121.771 858.93C121.961 858.93 122.116 858.97 122.236 859.05C122.356 859.13 122.441 859.215 122.491 859.305C122.551 859.385 122.826 859.85 123.316 860.7C123.816 861.54 124.291 862.325 124.741 863.055C124.791 862.895 125.061 862.28 125.551 861.21C126.041 860.13 126.301 859.555 126.331 859.485C126.371 859.415 126.431 859.33 126.511 859.23C126.641 859.06 126.821 858.975 127.051 858.975C127.291 858.975 127.571 859.045 127.891 859.185ZM145.073 856.425C145.153 856.575 145.198 856.71 145.208 856.83C145.228 856.95 145.238 857.125 145.238 857.355V865.68C145.238 866.37 145.048 866.775 144.668 866.895C144.478 866.955 144.238 866.985 143.948 866.985C143.658 866.985 143.428 866.96 143.258 866.91C143.088 866.86 142.958 866.8 142.868 866.73C142.778 866.66 142.708 866.56 142.658 866.43C142.608 866.26 142.583 866 142.583 865.65V860.625C142.333 860.935 141.968 861.43 141.488 862.11C141.008 862.78 140.703 863.2 140.573 863.37C140.443 863.54 140.353 863.66 140.303 863.73C140.253 863.79 140.128 863.88 139.928 864C139.738 864.11 139.528 864.165 139.298 864.165C139.078 864.165 138.873 864.115 138.683 864.015C138.503 863.905 138.373 863.8 138.293 863.7L138.173 863.535C137.973 863.285 137.578 862.755 136.988 861.945C136.398 861.125 136.078 860.685 136.028 860.625V865.68C136.028 865.91 136.018 866.085 135.998 866.205C135.988 866.315 135.943 866.44 135.863 866.58C135.713 866.85 135.323 866.985 134.693 866.985C134.083 866.985 133.703 866.85 133.553 866.58C133.473 866.44 133.423 866.31 133.403 866.19C133.393 866.07 133.388 865.89 133.388 865.65V857.325C133.388 857.095 133.393 856.925 133.403 856.815C133.423 856.695 133.473 856.56 133.553 856.41C133.703 856.15 134.093 856.02 134.723 856.02C134.993 856.02 135.223 856.055 135.413 856.125C135.613 856.185 135.743 856.25 135.803 856.32L135.893 856.41L139.298 860.88C140.998 858.63 142.133 857.145 142.703 856.425C142.873 856.155 143.273 856.02 143.903 856.02C144.543 856.02 144.933 856.155 145.073 856.425ZM146.214 863.055C146.214 861.855 146.634 860.865 147.474 860.085C148.314 859.305 149.274 858.915 150.354 858.915C151.434 858.915 152.389 859.305 153.219 860.085C154.049 860.855 154.464 861.84 154.464 863.04C154.464 863.87 154.249 864.61 153.819 865.26C153.389 865.9 152.864 866.375 152.244 866.685C151.634 866.985 150.999 867.135 150.339 867.135C149.679 867.135 149.039 866.975 148.419 866.655C147.799 866.325 147.274 865.845 146.844 865.215C146.424 864.575 146.214 863.855 146.214 863.055ZM149.349 864.135C149.669 864.375 149.994 864.495 150.324 864.495C150.654 864.495 150.984 864.37 151.314 864.12C151.644 863.87 151.809 863.5 151.809 863.01C151.809 862.52 151.654 862.155 151.344 861.915C151.034 861.675 150.699 861.555 150.339 861.555C149.979 861.555 149.644 861.68 149.334 861.93C149.024 862.18 148.869 862.55 148.869 863.04C148.869 863.52 149.029 863.885 149.349 864.135ZM159.813 859.125C160.813 859.125 161.643 859.505 162.303 860.265C162.973 861.025 163.308 861.955 163.308 863.055V865.695C163.308 865.925 163.298 866.1 163.278 866.22C163.268 866.33 163.223 866.46 163.143 866.61C163.013 866.87 162.628 867 161.988 867C161.378 867 160.998 866.87 160.848 866.61C160.768 866.46 160.718 866.325 160.698 866.205C160.688 866.085 160.683 865.905 160.683 865.665V863.04C160.683 862.63 160.568 862.31 160.338 862.08C160.108 861.85 159.813 861.735 159.453 861.735C159.103 861.735 158.793 861.845 158.523 862.065C158.253 862.275 158.098 862.515 158.058 862.785V865.695C158.058 865.925 158.048 866.1 158.028 866.22C158.018 866.33 157.973 866.46 157.893 866.61C157.763 866.87 157.378 867 156.738 867C156.108 867 155.723 866.865 155.583 866.595C155.513 866.445 155.468 866.315 155.448 866.205C155.438 866.095 155.433 865.92 155.433 865.68V856.71C155.433 856.48 155.438 856.31 155.448 856.2C155.468 856.08 155.513 855.95 155.583 855.81C155.723 855.54 156.113 855.405 156.753 855.405C157.383 855.405 157.763 855.54 157.893 855.81C157.973 855.96 158.018 856.095 158.028 856.215C158.048 856.325 158.058 856.495 158.058 856.725V860.04C158.558 859.43 159.143 859.125 159.813 859.125ZM169.646 859.935C169.706 859.375 170.101 859.095 170.831 859.095C171.221 859.095 171.511 859.125 171.701 859.185C171.891 859.245 172.021 859.35 172.091 859.5C172.171 859.65 172.216 859.785 172.226 859.905C172.246 860.015 172.256 860.185 172.256 860.415V865.665C172.256 865.895 172.246 866.07 172.226 866.19C172.216 866.3 172.176 866.43 172.106 866.58C171.966 866.84 171.621 866.97 171.071 866.97C170.531 866.97 170.166 866.905 169.976 866.775C169.796 866.635 169.691 866.435 169.661 866.175C169.291 866.705 168.671 866.97 167.801 866.97C166.941 866.97 166.141 866.575 165.401 865.785C164.661 864.995 164.291 864.08 164.291 863.04C164.291 861.99 164.661 861.075 165.401 860.295C166.151 859.505 166.971 859.11 167.861 859.11C168.201 859.11 168.511 859.17 168.791 859.29C169.071 859.41 169.266 859.525 169.376 859.635C169.486 859.735 169.576 859.835 169.646 859.935ZM166.916 863.055C166.916 863.385 167.046 863.685 167.306 863.955C167.566 864.215 167.881 864.345 168.251 864.345C168.621 864.345 168.926 864.21 169.166 863.94C169.416 863.67 169.541 863.375 169.541 863.055C169.541 862.725 169.421 862.42 169.181 862.14C168.951 861.86 168.636 861.72 168.236 861.72C167.846 861.72 167.526 861.86 167.276 862.14C167.036 862.42 166.916 862.725 166.916 863.055ZM176.031 860.145C176.501 859.435 177.066 859.08 177.726 859.08C178.746 859.08 179.506 859.515 180.006 860.385C180.116 860.235 180.246 860.08 180.396 859.92C180.556 859.75 180.806 859.57 181.146 859.38C181.486 859.18 181.836 859.08 182.196 859.08C182.996 859.08 183.666 859.39 184.206 860.01C184.746 860.62 185.016 861.635 185.016 863.055V865.68C185.016 865.91 185.006 866.085 184.986 866.205C184.976 866.315 184.931 866.445 184.851 866.595C184.721 866.865 184.336 867 183.696 867C183.066 867 182.681 866.86 182.541 866.58C182.471 866.43 182.426 866.3 182.406 866.19C182.396 866.07 182.391 865.895 182.391 865.665V863.04C182.391 862.17 182.081 861.735 181.461 861.735C181.111 861.735 180.871 861.85 180.741 862.08C180.621 862.31 180.561 862.635 180.561 863.055V865.68C180.561 865.92 180.551 866.095 180.531 866.205C180.521 866.315 180.476 866.445 180.396 866.595C180.256 866.865 179.866 867 179.226 867C178.596 867 178.211 866.86 178.071 866.58C178.001 866.43 177.956 866.3 177.936 866.19C177.926 866.07 177.921 865.895 177.921 865.665V863.04C177.921 862.17 177.611 861.735 176.991 861.735C176.391 861.735 176.091 862.17 176.091 863.04V865.695C176.091 865.925 176.081 866.1 176.061 866.22C176.051 866.33 176.006 866.46 175.926 866.61C175.776 866.87 175.386 867 174.756 867C174.126 867 173.741 866.865 173.601 866.595C173.531 866.445 173.486 866.315 173.466 866.205C173.456 866.095 173.451 865.92 173.451 865.68V860.4C173.451 860.17 173.456 860 173.466 859.89C173.486 859.77 173.536 859.64 173.616 859.5C173.766 859.23 174.121 859.095 174.681 859.095C175.241 859.095 175.606 859.185 175.776 859.365C175.946 859.545 176.031 859.805 176.031 860.145ZM193.83 862.11C193.83 862.72 193.675 863.175 193.365 863.475C193.065 863.765 192.73 863.91 192.36 863.91H188.805C188.805 864.19 188.97 864.425 189.3 864.615C189.63 864.805 189.96 864.9 190.29 864.9C190.87 864.9 191.325 864.84 191.655 864.72L191.82 864.66C192.06 864.55 192.26 864.495 192.42 864.495C192.74 864.495 193.015 864.72 193.245 865.17C193.375 865.44 193.44 865.67 193.44 865.86C193.44 866.75 192.375 867.195 190.245 867.195C189.505 867.195 188.845 867.07 188.265 866.82C187.695 866.56 187.25 866.22 186.93 865.8C186.3 864.99 185.985 864.085 185.985 863.085C185.985 861.825 186.39 860.82 187.2 860.07C188.02 859.31 189.04 858.93 190.26 858.93C191.65 858.93 192.67 859.42 193.32 860.4C193.66 860.92 193.83 861.49 193.83 862.11ZM190.665 862.545C191.045 862.545 191.235 862.385 191.235 862.065C191.235 861.835 191.145 861.65 190.965 861.51C190.795 861.37 190.545 861.3 190.215 861.3C189.895 861.3 189.575 861.435 189.255 861.705C188.935 861.965 188.775 862.245 188.775 862.545H190.665ZM200.103 855.81C200.183 855.66 200.318 855.555 200.508 855.495C200.698 855.435 200.948 855.405 201.258 855.405C201.578 855.405 201.833 855.435 202.023 855.495C202.213 855.555 202.343 855.66 202.413 855.81C202.493 855.96 202.538 856.095 202.548 856.215C202.568 856.325 202.578 856.495 202.578 856.725V865.68C202.578 865.91 202.568 866.085 202.548 866.205C202.538 866.315 202.493 866.44 202.413 866.58C202.263 866.85 201.838 866.985 201.138 866.985C200.448 866.985 200.063 866.74 199.983 866.25C199.563 866.73 198.978 866.97 198.228 866.97C197.328 866.97 196.508 866.58 195.768 865.8C195.028 865.01 194.658 864.095 194.658 863.055C194.658 862.005 195.028 861.085 195.768 860.295C196.518 859.505 197.338 859.11 198.228 859.11C198.968 859.11 199.543 859.36 199.953 859.86V856.71C199.953 856.48 199.958 856.31 199.968 856.2C199.988 856.08 200.033 855.95 200.103 855.81ZM197.673 863.955C197.933 864.225 198.248 864.36 198.618 864.36C198.988 864.36 199.293 864.225 199.533 863.955C199.783 863.685 199.908 863.39 199.908 863.07C199.908 862.74 199.788 862.435 199.548 862.155C199.318 861.875 199.003 861.735 198.603 861.735C198.203 861.735 197.883 861.875 197.643 862.155C197.403 862.425 197.283 862.725 197.283 863.055C197.283 863.385 197.413 863.685 197.673 863.955ZM216.297 856.215C216.787 856.555 217.032 856.885 217.032 857.205C217.032 857.395 216.917 857.66 216.687 858L213.447 862.845V865.71C213.447 865.94 213.437 866.115 213.417 866.235C213.407 866.345 213.362 866.475 213.282 866.625C213.202 866.775 213.067 866.88 212.877 866.94C212.687 867 212.432 867.03 212.112 867.03C211.792 867.03 211.537 867 211.347 866.94C211.157 866.88 211.022 866.775 210.942 866.625C210.862 866.465 210.812 866.33 210.792 866.22C210.782 866.1 210.777 865.92 210.777 865.68V862.845L207.537 858C207.307 857.66 207.192 857.395 207.192 857.205C207.192 856.885 207.412 856.58 207.852 856.29C208.292 855.99 208.607 855.84 208.797 855.84C208.987 855.84 209.137 855.88 209.247 855.96C209.417 856.07 209.597 856.275 209.787 856.575L212.112 860.295L214.437 856.575C214.627 856.275 214.792 856.08 214.932 855.99C215.072 855.89 215.232 855.84 215.412 855.84C215.602 855.84 215.897 855.965 216.297 856.215ZM221.032 859.935C221.092 859.375 221.487 859.095 222.217 859.095C222.607 859.095 222.897 859.125 223.087 859.185C223.277 859.245 223.407 859.35 223.477 859.5C223.557 859.65 223.602 859.785 223.612 859.905C223.632 860.015 223.642 860.185 223.642 860.415V865.665C223.642 865.895 223.632 866.07 223.612 866.19C223.602 866.3 223.562 866.43 223.492 866.58C223.352 866.84 223.007 866.97 222.457 866.97C221.917 866.97 221.552 866.905 221.362 866.775C221.182 866.635 221.077 866.435 221.047 866.175C220.677 866.705 220.057 866.97 219.187 866.97C218.327 866.97 217.527 866.575 216.787 865.785C216.047 864.995 215.677 864.08 215.677 863.04C215.677 861.99 216.047 861.075 216.787 860.295C217.537 859.505 218.357 859.11 219.247 859.11C219.587 859.11 219.897 859.17 220.177 859.29C220.457 859.41 220.652 859.525 220.762 859.635C220.872 859.735 220.962 859.835 221.032 859.935ZM218.302 863.055C218.302 863.385 218.432 863.685 218.692 863.955C218.952 864.215 219.267 864.345 219.637 864.345C220.007 864.345 220.312 864.21 220.552 863.94C220.802 863.67 220.927 863.375 220.927 863.055C220.927 862.725 220.807 862.42 220.567 862.14C220.337 861.86 220.022 861.72 219.622 861.72C219.232 861.72 218.912 861.86 218.662 862.14C218.422 862.42 218.302 862.725 218.302 863.055ZM224.898 866.295C224.708 866.175 224.613 865.985 224.613 865.725C224.613 865.465 224.803 865.07 225.183 864.54C225.293 864.37 225.468 864.285 225.708 864.285C225.958 864.285 226.293 864.41 226.713 864.66C227.133 864.9 227.513 865.02 227.853 865.02C228.463 865.02 228.768 864.9 228.768 864.66C228.768 864.47 228.433 864.33 227.763 864.24C227.133 864.15 226.508 863.915 225.888 863.535C225.598 863.355 225.358 863.075 225.168 862.695C224.978 862.305 224.883 861.845 224.883 861.315C224.883 859.735 225.968 858.945 228.138 858.945C228.848 858.945 229.578 859.115 230.328 859.455C230.678 859.615 230.853 859.815 230.853 860.055C230.853 860.295 230.743 860.59 230.523 860.94C230.303 861.29 230.078 861.465 229.848 861.465C229.728 861.465 229.503 861.39 229.173 861.24C228.853 861.09 228.503 861.015 228.123 861.015C227.533 861.015 227.238 861.125 227.238 861.345C227.238 861.645 227.578 861.84 228.258 861.93C228.918 862 229.558 862.19 230.178 862.5C230.468 862.64 230.708 862.885 230.898 863.235C231.098 863.575 231.198 864.005 231.198 864.525C231.198 865.045 231.098 865.49 230.898 865.86C230.708 866.22 230.438 866.49 230.088 866.67C229.448 866.98 228.643 867.135 227.673 867.135C226.713 867.135 225.788 866.855 224.898 866.295ZM232.237 866.295C232.047 866.175 231.952 865.985 231.952 865.725C231.952 865.465 232.142 865.07 232.522 864.54C232.632 864.37 232.807 864.285 233.047 864.285C233.297 864.285 233.632 864.41 234.052 864.66C234.472 864.9 234.852 865.02 235.192 865.02C235.802 865.02 236.107 864.9 236.107 864.66C236.107 864.47 235.772 864.33 235.102 864.24C234.472 864.15 233.847 863.915 233.227 863.535C232.937 863.355 232.697 863.075 232.507 862.695C232.317 862.305 232.222 861.845 232.222 861.315C232.222 859.735 233.307 858.945 235.477 858.945C236.187 858.945 236.917 859.115 237.667 859.455C238.017 859.615 238.192 859.815 238.192 860.055C238.192 860.295 238.082 860.59 237.862 860.94C237.642 861.29 237.417 861.465 237.187 861.465C237.067 861.465 236.842 861.39 236.512 861.24C236.192 861.09 235.842 861.015 235.462 861.015C234.872 861.015 234.577 861.125 234.577 861.345C234.577 861.645 234.917 861.84 235.597 861.93C236.257 862 236.897 862.19 237.517 862.5C237.807 862.64 238.047 862.885 238.237 863.235C238.437 863.575 238.537 864.005 238.537 864.525C238.537 865.045 238.437 865.49 238.237 865.86C238.047 866.22 237.777 866.49 237.427 866.67C236.787 866.98 235.982 867.135 235.012 867.135C234.052 867.135 233.127 866.855 232.237 866.295ZM239.516 860.415C239.516 860.185 239.521 860.015 239.531 859.905C239.551 859.785 239.596 859.65 239.666 859.5C239.806 859.24 240.196 859.11 240.836 859.11C241.316 859.11 241.656 859.195 241.856 859.365C242.026 859.505 242.116 859.72 242.126 860.01C242.136 860.11 242.141 860.255 242.141 860.445V865.695C242.141 865.925 242.131 866.1 242.111 866.22C242.101 866.33 242.056 866.46 241.976 866.61C241.846 866.87 241.461 867 240.821 867C240.191 867 239.806 866.865 239.666 866.595C239.596 866.445 239.551 866.315 239.531 866.205C239.521 866.095 239.516 865.92 239.516 865.68V860.415ZM241.976 857.64C241.906 857.78 241.776 857.88 241.586 857.94C241.396 858 241.141 858.03 240.821 858.03C240.511 858.03 240.261 858 240.071 857.94C239.881 857.88 239.746 857.775 239.666 857.625C239.596 857.475 239.551 857.345 239.531 857.235C239.521 857.115 239.516 856.94 239.516 856.71C239.516 856.48 239.521 856.31 239.531 856.2C239.551 856.08 239.596 855.95 239.666 855.81C239.806 855.54 240.196 855.405 240.836 855.405C241.466 855.405 241.846 855.54 241.976 855.81C242.056 855.96 242.101 856.095 242.111 856.215C242.131 856.325 242.141 856.495 242.141 856.725C242.141 856.955 242.131 857.13 242.111 857.25C242.101 857.36 242.056 857.49 241.976 857.64ZM247.734 859.095C248.734 859.095 249.564 859.48 250.224 860.25C250.894 861.01 251.229 861.94 251.229 863.04V865.68C251.229 865.91 251.219 866.085 251.199 866.205C251.189 866.315 251.149 866.44 251.079 866.58C250.939 866.85 250.549 866.985 249.909 866.985C249.199 866.985 248.789 866.8 248.679 866.43C248.619 866.26 248.589 866.005 248.589 865.665V863.025C248.589 862.615 248.469 862.295 248.229 862.065C247.999 861.835 247.684 861.72 247.284 861.72C246.894 861.72 246.574 861.84 246.324 862.08C246.084 862.32 245.964 862.635 245.964 863.025V865.68C245.964 865.91 245.954 866.085 245.934 866.205C245.924 866.315 245.879 866.44 245.799 866.58C245.669 866.85 245.284 866.985 244.644 866.985C244.014 866.985 243.629 866.85 243.489 866.58C243.419 866.43 243.374 866.3 243.354 866.19C243.344 866.07 243.339 865.895 243.339 865.665V860.355C243.339 860.135 243.344 859.97 243.354 859.86C243.374 859.74 243.424 859.61 243.504 859.47C243.644 859.22 244.029 859.095 244.659 859.095C245.269 859.095 245.644 859.21 245.784 859.44C245.884 859.61 245.934 859.815 245.934 860.055C245.974 859.985 246.064 859.885 246.204 859.755C246.344 859.625 246.479 859.52 246.609 859.44C246.949 859.21 247.324 859.095 247.734 859.095ZM260.055 862.11C260.055 862.72 259.9 863.175 259.59 863.475C259.29 863.765 258.955 863.91 258.585 863.91H255.03C255.03 864.19 255.195 864.425 255.525 864.615C255.855 864.805 256.185 864.9 256.515 864.9C257.095 864.9 257.55 864.84 257.88 864.72L258.045 864.66C258.285 864.55 258.485 864.495 258.645 864.495C258.965 864.495 259.24 864.72 259.47 865.17C259.6 865.44 259.665 865.67 259.665 865.86C259.665 866.75 258.6 867.195 256.47 867.195C255.73 867.195 255.07 867.07 254.49 866.82C253.92 866.56 253.475 866.22 253.155 865.8C252.525 864.99 252.21 864.085 252.21 863.085C252.21 861.825 252.615 860.82 253.425 860.07C254.245 859.31 255.265 858.93 256.485 858.93C257.875 858.93 258.895 859.42 259.545 860.4C259.885 860.92 260.055 861.49 260.055 862.11ZM256.89 862.545C257.27 862.545 257.46 862.385 257.46 862.065C257.46 861.835 257.37 861.65 257.19 861.51C257.02 861.37 256.77 861.3 256.44 861.3C256.12 861.3 255.8 861.435 255.48 861.705C255.16 861.965 255 862.245 255 862.545H256.89ZM269.538 861.48C271.068 862.95 272.153 864.055 272.793 864.795C273.123 865.165 273.288 865.48 273.288 865.74C273.288 865.99 273.088 866.29 272.688 866.64C272.288 866.98 271.958 867.15 271.698 867.15C271.448 867.15 271.143 866.94 270.783 866.52L267.483 862.755V865.68C267.483 865.92 267.473 866.095 267.453 866.205C267.443 866.315 267.398 866.445 267.318 866.595C267.178 866.865 266.788 867 266.148 867C265.448 867 265.038 866.81 264.918 866.43C264.858 866.27 264.828 866.015 264.828 865.665V857.325C264.828 857.095 264.833 856.925 264.843 856.815C264.863 856.695 264.913 856.56 264.993 856.41C265.133 856.14 265.523 856.005 266.163 856.005C266.863 856.005 267.278 856.19 267.408 856.56C267.458 856.73 267.483 856.99 267.483 857.34V860.205C268.843 858.675 269.943 857.42 270.783 856.44C271.133 856.03 271.438 855.825 271.698 855.825C271.958 855.825 272.288 856 272.688 856.35C273.088 856.69 273.288 856.99 273.288 857.25C273.288 857.5 273.138 857.8 272.838 858.15C272.258 858.82 271.358 859.74 270.138 860.91L269.538 861.48ZM278.788 859.125C279.788 859.125 280.618 859.505 281.278 860.265C281.948 861.025 282.283 861.955 282.283 863.055V865.695C282.283 865.925 282.273 866.1 282.253 866.22C282.243 866.33 282.198 866.46 282.118 866.61C281.988 866.87 281.603 867 280.963 867C280.353 867 279.973 866.87 279.823 866.61C279.743 866.46 279.693 866.325 279.673 866.205C279.663 866.085 279.658 865.905 279.658 865.665V863.04C279.658 862.63 279.543 862.31 279.313 862.08C279.083 861.85 278.788 861.735 278.428 861.735C278.078 861.735 277.768 861.845 277.498 862.065C277.228 862.275 277.073 862.515 277.033 862.785V865.695C277.033 865.925 277.023 866.1 277.003 866.22C276.993 866.33 276.948 866.46 276.868 866.61C276.738 866.87 276.353 867 275.713 867C275.083 867 274.698 866.865 274.558 866.595C274.488 866.445 274.443 866.315 274.423 866.205C274.413 866.095 274.408 865.92 274.408 865.68V856.71C274.408 856.48 274.413 856.31 274.423 856.2C274.443 856.08 274.488 855.95 274.558 855.81C274.698 855.54 275.088 855.405 275.728 855.405C276.358 855.405 276.738 855.54 276.868 855.81C276.948 855.96 276.993 856.095 277.003 856.215C277.023 856.325 277.033 856.495 277.033 856.725V860.04C277.533 859.43 278.118 859.125 278.788 859.125ZM288.62 859.935C288.68 859.375 289.075 859.095 289.805 859.095C290.195 859.095 290.485 859.125 290.675 859.185C290.865 859.245 290.995 859.35 291.065 859.5C291.145 859.65 291.19 859.785 291.2 859.905C291.22 860.015 291.23 860.185 291.23 860.415V865.665C291.23 865.895 291.22 866.07 291.2 866.19C291.19 866.3 291.15 866.43 291.08 866.58C290.94 866.84 290.595 866.97 290.045 866.97C289.505 866.97 289.14 866.905 288.95 866.775C288.77 866.635 288.665 866.435 288.635 866.175C288.265 866.705 287.645 866.97 286.775 866.97C285.915 866.97 285.115 866.575 284.375 865.785C283.635 864.995 283.265 864.08 283.265 863.04C283.265 861.99 283.635 861.075 284.375 860.295C285.125 859.505 285.945 859.11 286.835 859.11C287.175 859.11 287.485 859.17 287.765 859.29C288.045 859.41 288.24 859.525 288.35 859.635C288.46 859.735 288.55 859.835 288.62 859.935ZM285.89 863.055C285.89 863.385 286.02 863.685 286.28 863.955C286.54 864.215 286.855 864.345 287.225 864.345C287.595 864.345 287.9 864.21 288.14 863.94C288.39 863.67 288.515 863.375 288.515 863.055C288.515 862.725 288.395 862.42 288.155 862.14C287.925 861.86 287.61 861.72 287.21 861.72C286.82 861.72 286.5 861.86 286.25 862.14C286.01 862.42 285.89 862.725 285.89 863.055ZM297.796 859.185C297.986 859.245 298.141 859.35 298.261 859.5C298.391 859.64 298.456 859.87 298.456 860.19C298.456 860.51 298.361 860.86 298.171 861.24C297.981 861.62 297.706 861.81 297.346 861.81C297.166 861.81 296.991 861.77 296.821 861.69C296.661 861.61 296.446 861.57 296.176 861.57C295.906 861.57 295.651 861.665 295.411 861.855C295.181 862.045 295.066 862.275 295.066 862.545V865.695C295.066 865.925 295.056 866.1 295.036 866.22C295.026 866.33 294.981 866.46 294.901 866.61C294.751 866.87 294.361 867 293.731 867C293.251 867 292.906 866.915 292.696 866.745C292.536 866.605 292.446 866.39 292.426 866.1C292.426 866 292.426 865.855 292.426 865.665V860.4C292.426 860.17 292.431 860 292.441 859.89C292.461 859.77 292.506 859.64 292.576 859.5C292.716 859.23 293.106 859.095 293.746 859.095C294.346 859.095 294.721 859.21 294.871 859.44C294.981 859.6 295.036 859.765 295.036 859.935C295.086 859.865 295.156 859.78 295.246 859.68C295.346 859.58 295.551 859.445 295.861 859.275C296.171 859.105 296.441 859.02 296.671 859.02C296.911 859.02 297.111 859.035 297.271 859.065C297.431 859.085 297.606 859.125 297.796 859.185ZM304.651 859.185C304.841 859.245 304.996 859.35 305.116 859.5C305.246 859.64 305.311 859.87 305.311 860.19C305.311 860.51 305.216 860.86 305.026 861.24C304.836 861.62 304.561 861.81 304.201 861.81C304.021 861.81 303.846 861.77 303.676 861.69C303.516 861.61 303.301 861.57 303.031 861.57C302.761 861.57 302.506 861.665 302.266 861.855C302.036 862.045 301.921 862.275 301.921 862.545V865.695C301.921 865.925 301.911 866.1 301.891 866.22C301.881 866.33 301.836 866.46 301.756 866.61C301.606 866.87 301.216 867 300.586 867C300.106 867 299.761 866.915 299.551 866.745C299.391 866.605 299.301 866.39 299.281 866.1C299.281 866 299.281 865.855 299.281 865.665V860.4C299.281 860.17 299.286 860 299.296 859.89C299.316 859.77 299.361 859.64 299.431 859.5C299.571 859.23 299.961 859.095 300.601 859.095C301.201 859.095 301.576 859.21 301.726 859.44C301.836 859.6 301.891 859.765 301.891 859.935C301.941 859.865 302.011 859.78 302.101 859.68C302.201 859.58 302.406 859.445 302.716 859.275C303.026 859.105 303.296 859.02 303.526 859.02C303.766 859.02 303.966 859.035 304.126 859.065C304.286 859.085 304.461 859.125 304.651 859.185ZM310.813 859.935C310.873 859.375 311.268 859.095 311.998 859.095C312.388 859.095 312.678 859.125 312.868 859.185C313.058 859.245 313.188 859.35 313.258 859.5C313.338 859.65 313.383 859.785 313.393 859.905C313.413 860.015 313.423 860.185 313.423 860.415V865.665C313.423 865.895 313.413 866.07 313.393 866.19C313.383 866.3 313.343 866.43 313.273 866.58C313.133 866.84 312.788 866.97 312.238 866.97C311.698 866.97 311.333 866.905 311.143 866.775C310.963 866.635 310.858 866.435 310.828 866.175C310.458 866.705 309.838 866.97 308.968 866.97C308.108 866.97 307.308 866.575 306.568 865.785C305.828 864.995 305.458 864.08 305.458 863.04C305.458 861.99 305.828 861.075 306.568 860.295C307.318 859.505 308.138 859.11 309.028 859.11C309.368 859.11 309.678 859.17 309.958 859.29C310.238 859.41 310.433 859.525 310.543 859.635C310.653 859.735 310.743 859.835 310.813 859.935ZM308.083 863.055C308.083 863.385 308.213 863.685 308.473 863.955C308.733 864.215 309.048 864.345 309.418 864.345C309.788 864.345 310.093 864.21 310.333 863.94C310.583 863.67 310.708 863.375 310.708 863.055C310.708 862.725 310.588 862.42 310.348 862.14C310.118 861.86 309.803 861.72 309.403 861.72C309.013 861.72 308.693 861.86 308.443 862.14C308.203 862.42 308.083 862.725 308.083 863.055ZM319.208 861.75L318.233 861.69V863.76C318.233 864.03 318.273 864.225 318.353 864.345C318.443 864.465 318.603 864.525 318.833 864.525C319.073 864.525 319.253 864.535 319.373 864.555C319.503 864.565 319.638 864.61 319.778 864.69C320.008 864.82 320.123 865.155 320.123 865.695C320.123 866.325 319.983 866.71 319.703 866.85C319.553 866.92 319.418 866.965 319.298 866.985C319.188 866.995 319.023 867 318.803 867C317.763 867 316.973 866.765 316.433 866.295C315.893 865.825 315.623 865.03 315.623 863.91V861.69C315.433 861.72 315.228 861.735 315.008 861.735C314.788 861.735 314.603 861.65 314.453 861.48C314.313 861.31 314.243 861.02 314.243 860.61C314.243 860.2 314.268 859.905 314.318 859.725C314.368 859.535 314.438 859.4 314.528 859.32C314.688 859.19 314.888 859.125 315.128 859.125L315.623 859.185V857.64C315.623 857.41 315.628 857.24 315.638 857.13C315.658 857.02 315.708 856.9 315.788 856.77C315.918 856.52 316.303 856.395 316.943 856.395C317.623 856.395 318.028 856.58 318.158 856.95C318.208 857.11 318.233 857.365 318.233 857.715V859.185C318.673 859.145 319.003 859.125 319.223 859.125C319.453 859.125 319.623 859.135 319.733 859.155C319.853 859.165 319.988 859.21 320.138 859.29C320.398 859.42 320.528 859.805 320.528 860.445C320.528 861.075 320.393 861.46 320.123 861.6C319.973 861.67 319.838 861.715 319.718 861.735C319.608 861.745 319.438 861.75 319.208 861.75Z" fill="white"/>
<defs>
<linearGradient id="paint0_linear_12_2" x1="430" y1="932" x2="114" y2="-26" gradientUnits="userSpaceOnUse">
<stop offset="0.005" stop-color="#D05903"/>
<stop offset="1" stop-color="#E69500"/>
</linearGradient>
</defs>
</svg>
